<svg width="20" height="24" viewBox="0 0 20 24" fill="none" xmlns="http://www.w3.org/2000/svg">
<g opacity="0.5">
<path d="M2.22266 12.3496C2.6151 12.3497 2.99007 12.5046 3.26562 12.7773C3.541 13.05 3.69428 13.418 3.69434 13.7998C3.69434 14.1817 3.54102 14.5496 3.26562 14.8223C2.99005 15.0951 2.61517 15.2499 2.22266 15.25C1.82998 15.25 1.45438 15.0952 1.17871 14.8223C0.903354 14.5496 0.75 14.1817 0.75 13.7998C0.750052 13.418 0.903337 13.05 1.17871 12.7773C1.45438 12.5045 1.83003 12.3496 2.22266 12.3496ZM10 12.3496C10.3927 12.3496 10.7683 12.5044 11.0439 12.7773C11.3192 13.05 11.4726 13.418 11.4727 13.7998C11.4727 14.1816 11.3192 14.5496 11.0439 14.8223C10.7683 15.0952 10.3927 15.25 10 15.25C9.60733 15.25 9.23173 15.0952 8.95605 14.8223C8.68084 14.5496 8.52734 14.1816 8.52734 13.7998C8.5274 13.418 8.68076 13.05 8.95605 12.7773C9.23173 12.5044 9.60733 12.3496 10 12.3496ZM17.7773 12.3496C18.17 12.3496 18.5456 12.5045 18.8213 12.7773C19.0967 13.05 19.2499 13.418 19.25 13.7998C19.25 14.1817 19.0966 14.5496 18.8213 14.8223C18.5456 15.0952 18.17 15.25 17.7773 15.25C17.3848 15.2499 17.0099 15.0951 16.7344 14.8223C16.459 14.5496 16.3057 14.1817 16.3057 13.7998C16.3057 13.418 16.459 13.05 16.7344 12.7773C17.0099 12.5046 17.3849 12.3497 17.7773 12.3496ZM2.37988 5.75781C2.71436 5.79327 3.02713 5.94162 3.26562 6.17773C3.54102 6.4504 3.69434 6.81831 3.69434 7.2002C3.69428 7.58204 3.541 7.95004 3.26562 8.22266C2.99007 8.49538 2.6151 8.65028 2.22266 8.65039C1.83003 8.65039 1.45438 8.49552 1.17871 8.22266C0.903337 7.95004 0.750052 7.58204 0.75 7.2002C0.75 6.81833 0.903354 6.45039 1.17871 6.17773C1.4522 5.90698 1.82361 5.75243 2.21289 5.75L2.37988 5.75781ZM10.1562 5.75781C10.4912 5.79301 10.8051 5.94129 11.0439 6.17773C11.3192 6.45037 11.4727 6.81843 11.4727 7.2002C11.4726 7.58198 11.3192 7.95005 11.0439 8.22266C10.7683 8.49557 10.3927 8.65039 10 8.65039C9.60733 8.65039 9.23173 8.49557 8.95605 8.22266C8.68076 7.95005 8.5274 7.58198 8.52734 7.2002C8.52734 6.81843 8.68084 6.45037 8.95605 6.17773C9.22967 5.90685 9.60173 5.75229 9.99121 5.75L10.1562 5.75781ZM17.9355 5.75781C18.27 5.79329 18.5828 5.94165 18.8213 6.17773C19.0966 6.45039 19.25 6.81833 19.25 7.2002C19.2499 7.58204 19.0967 7.95004 18.8213 8.22266C18.5456 8.49552 18.17 8.65039 17.7773 8.65039C17.3849 8.65028 17.0099 8.49538 16.7344 8.22266C16.459 7.95003 16.3057 7.58204 16.3057 7.2002C16.3057 6.81831 16.459 6.4504 16.7344 6.17773C17.0079 5.90695 17.3792 5.7524 17.7686 5.75L17.9355 5.75781Z" stroke="#343120" stroke-width="1.5" stroke-linecap="round" stroke-linejoin="round"/>
</g>
</svg>
