<svg width="289" height="261" viewBox="0 0 289 261" fill="none" xmlns="http://www.w3.org/2000/svg">
<path d="M176.461 0.775879C184.016 0.995371 190.78 3.7032 195.848 9.93018V9.99463L195.957 10.1313C198.483 13.2841 199.553 16.9795 199.998 20.8696C200.446 24.779 200.258 28.8084 200.31 32.6812L200.323 33.6929L201.119 33.0679L230.621 9.89404C238.784 5.07784 250.53 1.78163 261.34 2.21143C271.99 2.63494 281.616 6.66078 286.116 16.27L286.326 16.7319C288.81 22.3542 288.959 26.8758 287.806 30.2642C286.653 33.6511 284.178 35.9683 281.288 37.1558C278.392 38.3459 275.095 38.3935 272.326 37.2534C269.571 36.1188 267.323 33.8028 266.492 30.2114C266.112 28.5624 266.38 26.7698 266.882 24.8687C267.133 23.9207 267.435 22.9643 267.737 21.9937C268.036 21.0282 268.334 20.0507 268.562 19.0835C269.016 17.1551 269.213 15.2015 268.575 13.3706C267.931 11.5212 266.466 9.88244 263.779 8.521L263.635 8.44873L263.476 8.47314C255.315 9.75573 249.095 12.819 244.28 17.1235C239.469 21.4239 236.086 26.9418 233.559 33.0981C231.033 39.2524 229.356 46.0637 227.971 52.9663C227.278 56.4183 226.657 59.8991 226.04 63.3345C225.423 66.7719 224.81 70.164 224.13 73.4478L224.005 74.0493H247.963V83.355C246.449 83.6186 244.435 83.6459 242.154 83.5542C239.675 83.4546 236.934 83.2195 234.24 83.0229C231.557 82.8272 228.921 82.6694 226.689 82.7319C225.572 82.7632 224.543 82.8498 223.653 83.0181C222.767 83.1853 221.986 83.4393 221.386 83.8247H221.385C221.19 83.9504 221.024 84.1488 220.882 84.3569C220.734 84.5741 220.583 84.8456 220.429 85.1597C220.121 85.7885 219.782 86.63 219.417 87.6479C218.687 89.6865 217.837 92.4795 216.903 95.7974C215.034 102.435 212.819 111.214 210.548 120.35C205.998 138.652 201.231 158.342 198.538 165.303V165.304C192.244 181.617 178.77 211.017 161.126 232.856C152.303 243.777 142.47 252.766 132.009 257.305C121.577 261.832 110.508 261.941 99.1194 255.083C90.6508 249.981 87.3065 240.526 88.678 233.254C89.3622 229.626 91.2114 226.58 94.1379 224.86C97.0601 223.142 101.144 222.696 106.402 224.443C107.968 224.967 109.025 225.724 109.735 226.633C110.446 227.545 110.836 228.648 111.009 229.909C111.359 232.464 110.805 235.531 110.348 238.733C109.898 241.879 109.546 245.149 110.433 247.918C111.341 250.753 113.519 252.988 117.913 254.122C122.342 255.264 126.504 254.123 130.296 251.625C134.078 249.134 137.519 245.28 140.555 240.929C146.628 232.226 151.168 221.415 153.622 215.16C156.772 207.132 165.261 175.987 172.115 146.031C175.543 131.045 178.568 116.337 180.313 104.944C181.185 99.2495 181.739 94.3689 181.864 90.6909C181.925 88.8536 181.88 87.299 181.708 86.0854C181.54 84.9018 181.238 83.9323 180.694 83.3823L180.507 83.1938L180.245 83.2427C177.307 83.8004 173.292 83.7372 168.777 83.4927C164.289 83.2497 159.311 82.8281 154.546 82.6938C149.778 82.5594 145.156 82.7094 141.341 83.6265C137.529 84.5429 134.433 86.2477 132.855 89.2935C131.708 91.4897 130.624 95.0408 129.574 99.2915C128.521 103.555 127.492 108.57 126.468 113.722C124.416 124.048 122.388 134.896 120.22 141.484V141.485C114.059 160.275 102.272 191.957 85.803 217.799C77.5679 230.721 68.1796 242.154 57.7649 249.789C47.3584 257.417 35.9524 261.239 23.6389 259.004H23.6379C13.567 257.182 7.53301 253.028 4.36841 248.225C1.20158 243.419 0.862954 237.896 2.30786 233.242C3.75705 228.574 6.97608 224.848 10.845 223.572C14.6651 222.311 19.2696 223.393 23.6418 228.648C26.1298 231.646 25.6831 234.795 24.7532 238.168C24.2954 239.829 23.7065 241.585 23.3635 243.3C23.0171 245.034 22.9017 246.805 23.4094 248.564C24.2513 251.531 26.1569 253.161 28.6096 253.8C31.0216 254.429 33.9294 254.095 36.8362 253.258C42.6488 251.585 48.7229 247.822 51.3967 245.061L51.3977 245.06C53.699 242.676 56.0992 238.868 58.5374 234.014C60.9799 229.152 63.4775 223.207 65.9651 216.524C70.9405 203.157 75.8863 186.806 80.2786 170.189C84.6711 153.571 88.512 136.678 91.2766 122.225C94.0389 107.784 95.7328 95.7452 95.8186 88.8501V88.5425C95.7957 87.0323 95.4764 85.8628 94.887 84.9819C94.2527 84.0343 93.3419 83.4759 92.2922 83.1704C91.2531 82.8679 90.0636 82.8079 88.8323 82.8579C87.599 82.908 86.287 83.0699 85.0002 83.229C83.7046 83.3892 82.4343 83.5469 81.2483 83.5972C80.0602 83.6475 78.9925 83.5883 78.1018 83.3335C77.2216 83.0817 76.5299 82.6442 76.052 81.9399C75.5829 81.2484 75.287 80.2471 75.2815 78.7935C77.767 74.6387 82.021 73.9654 86.4797 74.0366C87.6001 74.0545 88.7215 74.1188 89.8215 74.1831C90.9174 74.2471 91.996 74.3114 93.0129 74.3257C95.0234 74.3539 96.9046 74.1928 98.2952 73.3677L98.2961 73.3687C98.4247 73.2936 98.5279 73.1828 98.6057 73.0874C98.6896 72.9845 98.7747 72.8597 98.8596 72.7222C99.0296 72.4467 99.2213 72.0829 99.4299 71.6509C99.8481 70.7847 100.355 69.6017 100.926 68.2007C102.068 65.3965 103.479 61.6816 104.961 57.8081C106.445 53.9309 108.003 49.8909 109.442 46.4233C110.885 42.9438 112.193 40.079 113.18 38.5288C120.018 27.8253 135.649 14.3018 152.157 6.6792C160.407 2.87001 168.835 0.554323 176.461 0.775879ZM175.44 8.36475C161.604 8.19038 152.531 19.4777 146.92 33.1538C141.296 46.8628 139.05 63.193 138.964 73.5796L138.959 74.0835H187.151C187.391 74.0835 187.571 73.9596 187.683 73.8521C187.796 73.7428 187.888 73.6043 187.964 73.4663C188.118 73.1881 188.265 72.8062 188.408 72.3579C188.697 71.4545 189.006 70.1733 189.345 68.6489C190.027 65.5818 190.836 61.4963 191.861 57.271C192.885 53.0488 194.116 48.729 195.628 45.229C196.384 43.4793 197.205 41.9491 198.094 40.7437C198.986 39.5353 199.926 38.6822 200.912 38.2407L202.613 37.479L200.76 37.2866L181.018 35.2339C180.156 33.6844 180.205 31.4169 180.678 28.7104C180.922 27.316 181.269 25.8441 181.63 24.3462C181.99 22.8538 182.364 21.3338 182.652 19.8657C183.222 16.9583 183.488 14.115 182.551 11.9722C182.073 10.8794 181.287 9.97892 180.106 9.35205C178.935 8.73071 177.402 8.391 175.441 8.36475H175.44Z" stroke="#F5EFE3"/>
</svg>
