<svg width="39" height="35" viewBox="0 0 39 35" fill="none" xmlns="http://www.w3.org/2000/svg">
<path d="M14.5 15H4.5C3.83696 15 3.20107 14.7366 2.73223 14.2678C2.26339 13.7989 2 13.163 2 12.5V5C2 4.33696 2.26339 3.70107 2.73223 3.23223C3.20107 2.76339 3.83696 2.5 4.5 2.5H12C12.663 2.5 13.2989 2.76339 13.7678 3.23223C14.2366 3.70107 14.5 4.33696 14.5 5V20C14.5 26.6675 11.1675 30.8325 4.5 32.5M37 15H27C26.337 15 25.7011 14.7366 25.2322 14.2678C24.7634 13.7989 24.5 13.163 24.5 12.5V5C24.5 4.33696 24.7634 3.70107 25.2322 3.23223C25.7011 2.76339 26.337 2.5 27 2.5H34.5C35.163 2.5 35.7989 2.76339 36.2678 3.23223C36.7366 3.70107 37 4.33696 37 5V20C37 26.6675 33.6675 30.8325 27 32.5" stroke="white" stroke-width="4" stroke-linecap="round" stroke-linejoin="round"/>
<path d="M14.5 15H4.5C3.83696 15 3.20107 14.7366 2.73223 14.2678C2.26339 13.7989 2 13.163 2 12.5V5C2 4.33696 2.26339 3.70107 2.73223 3.23223C3.20107 2.76339 3.83696 2.5 4.5 2.5H12C12.663 2.5 13.2989 2.76339 13.7678 3.23223C14.2366 3.70107 14.5 4.33696 14.5 5V20C14.5 26.6675 11.1675 30.8325 4.5 32.5M37 15H27C26.337 15 25.7011 14.7366 25.2322 14.2678C24.7634 13.7989 24.5 13.163 24.5 12.5V5C24.5 4.33696 24.7634 3.70107 25.2322 3.23223C25.7011 2.76339 26.337 2.5 27 2.5H34.5C35.163 2.5 35.7989 2.76339 36.2678 3.23223C36.7366 3.70107 37 4.33696 37 5V20C37 26.6675 33.6675 30.8325 27 32.5" stroke="#3D3D3D" stroke-width="4" stroke-linecap="round" stroke-linejoin="round"/>
</svg>
