<svg width="1402" height="1225" viewBox="0 0 1402 1225" fill="none" xmlns="http://www.w3.org/2000/svg">
<g opacity="0.25" clip-path="url(#clip0_2025_214)">
<path opacity="0.5" d="M240.984 542.931C263.947 535.351 288.708 547.823 296.288 570.786C303.868 593.75 291.396 618.512 268.432 626.091C245.468 633.671 220.708 621.199 213.128 598.235C205.549 575.271 218.02 550.511 240.984 542.931Z" stroke="#E5D9C1" stroke-width="1.5"/>
<path opacity="0.5" d="M213.065 458.346C236.029 450.767 260.79 463.238 268.369 486.202C275.949 509.166 263.477 533.927 240.513 541.507C217.549 549.086 192.789 536.614 185.209 513.65C177.63 490.687 190.101 465.926 213.065 458.346Z" stroke="#E5D9C1" stroke-width="1.5"/>
<path opacity="0.5" d="M185.136 373.731C208.1 366.151 232.861 378.623 240.441 401.586C248.02 424.55 235.549 449.312 212.585 456.892C189.621 464.471 164.86 451.999 157.28 429.035C149.701 406.071 162.172 381.311 185.136 373.731Z" stroke="#E5D9C1" stroke-width="1.5"/>
<path opacity="0.5" d="M227.752 294.926C250.716 287.346 275.477 299.817 283.056 322.781C290.636 345.745 278.164 370.507 255.2 378.086C232.236 385.666 207.476 373.194 199.896 350.23C192.317 327.266 204.788 302.506 227.752 294.926Z" stroke="#E5D9C1" stroke-width="1.5"/>
<path opacity="0.5" d="M104.258 335.687C127.222 328.108 151.983 340.579 159.563 363.543C167.143 386.507 154.671 411.268 131.707 418.848C108.743 426.427 83.9826 413.955 76.4029 390.991C68.8235 368.028 81.2947 343.267 104.258 335.687Z" stroke="#E5D9C1" stroke-width="1.5"/>
<path opacity="0.5" d="M226.45 706.301C249.414 698.721 274.175 711.192 281.755 734.156C289.335 757.12 276.863 781.881 253.899 789.461C230.935 797.041 206.175 784.569 198.595 761.605C191.015 738.641 203.487 713.881 226.45 706.301Z" stroke="#E5D9C1" stroke-width="1.5"/>
<path opacity="0.5" d="M269.066 627.496C292.03 619.916 316.791 632.387 324.371 655.351C331.951 678.315 319.479 703.076 296.515 710.656C273.551 718.235 248.79 705.763 241.211 682.8C233.631 659.836 246.102 635.075 269.066 627.496Z" stroke="#E5D9C1" stroke-width="1.5"/>
<path opacity="0.5" d="M145.573 668.257C168.537 660.677 193.298 673.148 200.878 696.112C208.457 719.076 195.986 743.838 173.022 751.417C150.058 758.997 125.297 746.525 117.717 723.561C110.138 700.597 122.609 675.837 145.573 668.257Z" stroke="#E5D9C1" stroke-width="1.5"/>
<path opacity="0.5" d="M274.933 781.471C297.897 773.891 322.658 786.363 330.238 809.326C337.818 832.29 325.346 857.052 302.382 864.632C279.418 872.211 254.657 859.739 247.078 836.775C239.498 813.811 251.97 789.051 274.933 781.471Z" stroke="#E5D9C1" stroke-width="1.5"/>
<path opacity="0.5" d="M322.176 857.017C345.14 849.437 369.901 861.908 377.481 884.872C385.06 907.836 372.589 932.598 349.625 940.177C326.661 947.757 301.9 935.285 294.32 912.321C286.741 889.357 299.212 864.597 322.176 857.017Z" stroke="#E5D9C1" stroke-width="1.5"/>
<path opacity="0.5" d="M369.409 932.532C392.373 924.952 417.134 937.423 424.714 960.387C432.293 983.351 419.822 1008.11 396.858 1015.69C373.894 1023.27 349.133 1010.8 341.553 987.836C333.974 964.872 346.445 940.112 369.409 932.532Z" stroke="#E5D9C1" stroke-width="1.5"/>
<path opacity="0.5" d="M346.784 1019.2C369.748 1011.62 394.509 1024.09 402.089 1047.06C409.668 1070.02 397.197 1094.78 374.233 1102.36C351.269 1109.94 326.508 1097.47 318.928 1074.5C311.349 1051.54 323.82 1026.78 346.784 1019.2Z" stroke="#E5D9C1" stroke-width="1.5"/>
<path opacity="0.5" d="M457.014 950.243C479.978 942.663 504.739 955.135 512.319 978.098C519.898 1001.06 507.427 1025.82 484.463 1033.4C461.499 1040.98 436.738 1028.51 429.158 1005.55C421.579 982.583 434.05 957.823 457.014 950.243Z" stroke="#E5D9C1" stroke-width="1.5"/>
<path opacity="0.5" d="M353.61 599.454C376.574 591.874 401.335 604.345 408.915 627.309C416.495 650.273 404.023 675.034 381.059 682.614C358.095 690.193 333.334 677.721 325.755 654.758C318.175 631.794 330.646 607.033 353.61 599.454Z" stroke="#E5D9C1" stroke-width="1.5"/>
<path opacity="0.5" d="M438.226 571.525C461.19 563.945 485.951 576.416 493.531 599.38C501.11 622.344 488.638 647.105 465.674 654.685C442.711 662.264 417.95 649.792 410.37 626.829C402.791 603.865 415.262 579.104 438.226 571.525Z" stroke="#E5D9C1" stroke-width="1.5"/>
<path opacity="0.5" d="M522.841 543.596C545.805 536.016 570.566 548.487 578.146 571.451C585.726 594.415 573.254 619.176 550.29 626.756C527.326 634.335 502.565 621.864 494.985 598.9C487.406 575.936 499.877 551.176 522.841 543.596Z" stroke="#E5D9C1" stroke-width="1.5"/>
<path opacity="0.5" d="M560.854 462.728C583.818 455.149 608.579 467.62 616.158 490.584C623.738 513.548 611.266 538.309 588.302 545.889C565.338 553.468 540.578 540.996 532.998 518.032C525.419 495.069 537.89 470.308 560.854 462.728Z" stroke="#E5D9C1" stroke-width="1.5"/>
<path opacity="0.5" d="M601.526 585.331C624.489 577.751 649.25 590.222 656.83 613.186C664.41 636.15 651.938 660.911 628.974 668.491C606.01 676.07 581.25 663.598 573.67 640.634C566.091 617.671 578.562 592.91 601.526 585.331Z" stroke="#E5D9C1" stroke-width="1.5"/>
<path opacity="0.5" d="M729.04 703.077C752.004 695.497 776.765 707.968 784.345 730.932C791.924 753.896 779.452 778.657 756.488 786.237C733.524 793.817 708.764 781.345 701.184 758.381C693.605 735.417 706.076 710.657 729.04 703.077Z" stroke="#E5D9C1" stroke-width="1.5"/>
<path opacity="0.5" d="M947.991 820.385C970.955 812.805 995.716 825.276 1003.3 848.24C1010.88 871.204 998.404 895.966 975.44 903.545C952.476 911.125 927.716 898.653 920.136 875.689C912.556 852.725 925.028 827.965 947.991 820.385Z" stroke="#E5D9C1" stroke-width="1.5"/>
<path opacity="0.5" d="M861.161 800.372C884.125 792.792 908.886 805.263 916.466 828.227C924.046 851.191 911.574 875.952 888.61 883.532C865.646 891.111 840.885 878.639 833.306 855.675C825.726 832.712 838.198 807.951 861.161 800.372Z" stroke="#E5D9C1" stroke-width="1.5"/>
<path opacity="0.5" d="M774.341 780.389C797.305 772.809 822.066 785.28 829.646 808.244C837.226 831.208 824.754 855.969 801.79 863.549C778.826 871.129 754.065 858.657 746.485 835.693C738.906 812.729 751.377 787.969 774.341 780.389Z" stroke="#E5D9C1" stroke-width="1.5"/>
<path opacity="0.5" d="M699.885 829.796C722.849 822.216 747.61 834.687 755.19 857.651C762.769 880.615 750.298 905.377 727.334 912.956C704.37 920.536 679.609 908.064 672.029 885.1C664.45 862.136 676.921 837.376 699.885 829.796Z" stroke="#E5D9C1" stroke-width="1.5"/>
<path opacity="0.5" d="M682.4 624.501C705.363 616.921 730.125 629.392 737.704 652.356C745.284 675.32 732.812 700.082 709.848 707.661C686.884 715.241 662.124 702.769 654.544 679.805C646.965 656.841 659.436 632.081 682.4 624.501Z" stroke="#E5D9C1" stroke-width="1.5"/>
<path opacity="0.5" d="M993.059 896.99C1016.02 889.41 1040.78 901.881 1048.36 924.845C1055.94 947.809 1043.47 972.57 1020.51 980.15C997.544 987.73 972.783 975.258 965.204 952.294C957.624 929.33 970.096 904.57 993.059 896.99Z" stroke="#E5D9C1" stroke-width="1.5"/>
<path opacity="0.5" d="M1022.22 770.301C1045.19 762.722 1069.95 775.193 1077.53 798.156C1085.11 821.12 1072.64 845.882 1049.67 853.462C1026.71 861.041 1001.95 848.569 994.369 825.605C986.789 802.641 999.261 777.881 1022.22 770.301Z" stroke="#E5D9C1" stroke-width="1.5"/>
<path opacity="0.5" d="M682.745 625.547C705.709 617.967 730.47 630.438 738.05 653.402C745.629 676.366 733.158 701.127 710.193 708.707C687.23 716.287 662.469 703.815 654.889 680.851C647.31 657.887 659.781 633.127 682.745 625.547Z" stroke="#E5D9C1" stroke-width="1.5"/>
<path opacity="0.5" d="M766.609 595.342C789.573 587.762 814.334 600.233 821.914 623.197C829.494 646.161 817.022 670.922 794.058 678.502C771.094 686.081 746.333 673.609 738.754 650.645C731.174 627.682 743.645 602.921 766.609 595.342Z" stroke="#E5D9C1" stroke-width="1.5"/>
<path opacity="0.5" d="M941.76 563.828C964.724 556.248 989.485 568.719 997.065 591.683C1004.64 614.647 992.173 639.408 969.209 646.988C946.245 654.567 921.484 642.095 913.904 619.132C906.325 596.168 918.796 571.407 941.76 563.828Z" stroke="#E5D9C1" stroke-width="1.5"/>
<path opacity="0.5" d="M854.188 580.112C877.152 572.532 901.913 585.003 909.493 607.967C917.073 630.931 904.601 655.693 881.637 663.272C858.673 670.852 833.912 658.38 826.333 635.416C818.753 612.452 831.224 587.692 854.188 580.112Z" stroke="#E5D9C1" stroke-width="1.5"/>
<path opacity="0.5" d="M1013.68 616.082C1036.65 608.503 1061.41 620.974 1068.99 643.937C1076.57 666.901 1064.1 691.663 1041.13 699.243C1018.17 706.822 993.408 694.35 985.829 671.386C978.249 648.422 990.721 623.662 1013.68 616.082Z" stroke="#E5D9C1" stroke-width="1.5"/>
<path opacity="0.5" d="M989.846 488.265C1012.81 480.685 1037.57 493.156 1045.15 516.12C1052.73 539.084 1040.26 563.845 1017.3 571.425C994.331 579.005 969.571 566.533 961.991 543.569C954.411 520.605 966.883 495.845 989.846 488.265Z" stroke="#E5D9C1" stroke-width="1.5"/>
<path opacity="0.5" d="M1093.47 343.789C1116.43 336.209 1141.19 348.68 1148.77 371.644C1156.35 394.608 1143.88 419.369 1120.92 426.949C1097.95 434.528 1073.19 422.056 1065.61 399.092C1058.03 376.129 1070.5 351.368 1093.47 343.789Z" stroke="#E5D9C1" stroke-width="1.5"/>
<path opacity="0.5" d="M1041.27 416C1064.24 408.42 1089 420.891 1096.58 443.855C1104.16 466.819 1091.69 491.581 1068.72 499.16C1045.76 506.74 1021 494.268 1013.42 471.304C1005.84 448.34 1018.31 423.58 1041.27 416Z" stroke="#E5D9C1" stroke-width="1.5"/>
<path opacity="0.5" d="M1181.59 332.064C1204.55 324.484 1229.31 336.955 1236.89 359.919C1244.47 382.883 1232 407.644 1209.04 415.224C1186.07 422.804 1161.31 410.332 1153.73 387.368C1146.15 364.404 1158.62 339.644 1181.59 332.064Z" stroke="#E5D9C1" stroke-width="1.5"/>
<path opacity="0.5" d="M1076.2 255.927C1099.16 248.347 1123.92 260.818 1131.5 283.782C1139.08 306.746 1126.61 331.508 1103.65 339.087C1080.68 346.667 1055.92 334.195 1048.34 311.231C1040.76 288.267 1053.24 263.507 1076.2 255.927Z" stroke="#E5D9C1" stroke-width="1.5"/>
<path opacity="0.5" d="M1178.64 542.533C1201.61 534.953 1226.37 547.424 1233.95 570.388C1241.53 593.352 1229.06 618.113 1206.09 625.693C1183.13 633.273 1158.37 620.801 1150.79 597.837C1143.21 574.873 1155.68 550.113 1178.64 542.533Z" stroke="#E5D9C1" stroke-width="1.5"/>
<path opacity="0.5" d="M1097.06 578.296C1120.02 570.716 1144.78 583.187 1152.36 606.151C1159.94 629.115 1147.47 653.877 1124.51 661.456C1101.54 669.036 1076.78 656.564 1069.2 633.6C1061.62 610.636 1074.1 585.876 1097.06 578.296Z" stroke="#E5D9C1" stroke-width="1.5"/>
<path opacity="0.5" d="M1260.56 577.097C1283.52 569.517 1308.28 581.988 1315.86 604.952C1323.44 627.916 1310.97 652.677 1288.01 660.257C1265.04 667.837 1240.28 655.365 1232.7 632.401C1225.12 609.437 1237.59 584.677 1260.56 577.097Z" stroke="#E5D9C1" stroke-width="1.5"/>
<path opacity="0.5" d="M1208.33 458.036C1231.29 450.456 1256.06 462.927 1263.64 485.891C1271.22 508.855 1258.74 533.616 1235.78 541.196C1212.82 548.775 1188.05 536.303 1180.48 513.34C1172.9 490.376 1185.37 465.615 1208.33 458.036Z" stroke="#E5D9C1" stroke-width="1.5"/>
</g>
<defs>
<clipPath id="clip0_2025_214">
<rect width="1178.26" height="900.706" fill="white" transform="translate(0 369.31) rotate(-18.2665)"/>
</clipPath>
</defs>
</svg>
