<svg width="720" height="550" viewBox="0 0 720 550" fill="none" xmlns="http://www.w3.org/2000/svg">
<g clip-path="url(#clip0_2064_206)">
<path opacity="0.5" d="M106.507 147.091C121.112 147.091 132.952 158.931 132.952 173.536C132.952 188.142 121.112 199.982 106.507 199.982C91.9017 199.982 80.0618 188.142 80.0618 173.536C80.0618 158.931 91.9018 147.091 106.507 147.091Z" stroke="#E5D9C1" stroke-width="1.5"/>
<path opacity="0.5" d="M106.507 92.7002C121.112 92.7002 132.952 104.54 132.952 119.146C132.952 133.751 121.112 145.591 106.507 145.591C91.9017 145.591 80.0618 133.751 80.0618 119.146C80.0618 104.54 91.9018 92.7002 106.507 92.7002Z" stroke="#E5D9C1" stroke-width="1.5"/>
<path opacity="0.5" d="M106.507 38.2896C121.112 38.2896 132.952 50.1295 132.952 64.7349C132.952 79.3403 121.112 91.1802 106.507 91.1802C91.9017 91.1801 80.0618 79.3402 80.0618 64.7349C80.0618 50.1295 91.9018 38.2896 106.507 38.2896Z" stroke="#E5D9C1" stroke-width="1.5"/>
<path opacity="0.5" d="M146.301 0.75C160.907 0.75 172.747 12.59 172.747 27.1953C172.747 41.8007 160.907 53.6406 146.301 53.6406C131.696 53.6406 119.856 41.8007 119.856 27.1953C119.856 12.59 131.696 0.750055 146.301 0.75Z" stroke="#E5D9C1" stroke-width="1.5"/>
<path opacity="0.5" d="M66.8907 0.75C81.4961 0.75 93.336 12.59 93.3361 27.1953C93.3361 41.8007 81.4961 53.6406 66.8907 53.6406C52.2854 53.6406 40.4454 41.8007 40.4454 27.1953C40.4455 12.59 52.2854 0.750055 66.8907 0.75Z" stroke="#E5D9C1" stroke-width="1.5"/>
<path opacity="0.5" d="M66.8116 239.041C81.417 239.041 93.2569 250.881 93.257 265.486C93.257 280.092 81.417 291.932 66.8116 291.932C52.2063 291.932 40.3663 280.092 40.3663 265.486C40.3664 250.881 52.2063 239.041 66.8116 239.041Z" stroke="#E5D9C1" stroke-width="1.5"/>
<path opacity="0.5" d="M106.606 201.502C121.211 201.502 133.051 213.342 133.051 227.947C133.051 242.552 121.211 254.392 106.606 254.392C92.0006 254.392 80.1606 242.552 80.1606 227.947C80.1607 213.342 92.0006 201.502 106.606 201.502Z" stroke="#E5D9C1" stroke-width="1.5"/>
<path opacity="0.5" d="M27.1953 201.502C41.8007 201.502 53.6406 213.342 53.6406 227.947C53.6406 242.552 41.8007 254.392 27.1953 254.392C12.59 254.392 0.75 242.552 0.75 227.947C0.750055 213.342 12.59 201.502 27.1953 201.502Z" stroke="#E5D9C1" stroke-width="1.5"/>
<path opacity="0.5" d="M80.5378 291.909C95.1432 291.909 106.983 303.749 106.983 318.354C106.983 332.96 95.1432 344.8 80.5378 344.8C65.9325 344.8 54.0925 332.96 54.0925 318.354C54.0926 303.749 65.9325 291.909 80.5378 291.909Z" stroke="#E5D9C1" stroke-width="1.5"/>
<path opacity="0.5" d="M93.473 344.757C108.078 344.757 119.918 356.597 119.918 371.202C119.918 385.808 108.078 397.648 93.473 397.648C78.8677 397.648 67.0277 385.808 67.0277 371.202C67.0278 356.597 78.8677 344.757 93.473 344.757Z" stroke="#E5D9C1" stroke-width="1.5"/>
<path opacity="0.5" d="M106.408 397.585C121.013 397.585 132.853 409.425 132.853 424.031C132.853 438.636 121.013 450.476 106.408 450.476C91.8027 450.476 79.9628 438.636 79.9628 424.031C79.9628 409.425 91.8028 397.586 106.408 397.585Z" stroke="#E5D9C1" stroke-width="1.5"/>
<path opacity="0.5" d="M76.7008 443.511C91.3062 443.511 103.146 455.351 103.146 469.956C103.146 484.562 91.3062 496.402 76.7008 496.402C62.0955 496.402 50.2555 484.562 50.2555 469.956C50.2555 455.351 62.0955 443.511 76.7008 443.511Z" stroke="#E5D9C1" stroke-width="1.5"/>
<path opacity="0.5" d="M153.817 424.623C168.423 424.623 180.262 436.463 180.262 451.068C180.262 465.673 168.423 477.513 153.817 477.513C139.212 477.513 127.372 465.673 127.372 451.068C127.372 436.463 139.212 424.623 153.817 424.623Z" stroke="#E5D9C1" stroke-width="1.5"/>
<path opacity="0.5" d="M160.997 201.422C175.602 201.422 187.442 213.262 187.442 227.868C187.442 242.473 175.602 254.313 160.997 254.313C146.391 254.313 134.551 242.473 134.551 227.868C134.551 213.262 146.391 201.423 160.997 201.422Z" stroke="#E5D9C1" stroke-width="1.5"/>
<path opacity="0.5" d="M215.407 201.422C230.013 201.422 241.853 213.262 241.853 227.868C241.853 242.473 230.013 254.313 215.407 254.313C200.802 254.313 188.962 242.473 188.962 227.868C188.962 213.262 200.802 201.423 215.407 201.422Z" stroke="#E5D9C1" stroke-width="1.5"/>
<path opacity="0.5" d="M269.818 201.422C284.423 201.422 296.263 213.262 296.263 227.868C296.263 242.473 284.423 254.313 269.818 254.313C255.213 254.313 243.373 242.473 243.373 227.868C243.373 213.262 255.213 201.423 269.818 201.422Z" stroke="#E5D9C1" stroke-width="1.5"/>
<path opacity="0.5" d="M307.338 161.806C321.943 161.806 333.783 173.646 333.783 188.251C333.783 202.857 321.943 214.697 307.338 214.697C292.732 214.697 280.892 202.857 280.892 188.251C280.893 173.646 292.732 161.806 307.338 161.806Z" stroke="#E5D9C1" stroke-width="1.5"/>
<path opacity="0.5" d="M307.456 240.683C322.062 240.683 333.902 252.523 333.902 267.128C333.902 281.733 322.062 293.573 307.456 293.573C292.851 293.573 281.011 281.733 281.011 267.128C281.011 252.523 292.851 240.683 307.456 240.683Z" stroke="#E5D9C1" stroke-width="1.5"/>
<path opacity="0.5" d="M358.861 333.365C373.466 333.365 385.306 345.205 385.306 359.81C385.306 374.415 373.466 386.255 358.861 386.255C344.255 386.255 332.415 374.415 332.415 359.81C332.415 345.205 344.255 333.365 358.861 333.365Z" stroke="#E5D9C1" stroke-width="1.5"/>
<path opacity="0.5" d="M463.37 443.293C477.975 443.293 489.815 455.133 489.815 469.739C489.815 484.344 477.976 496.184 463.37 496.184C448.765 496.184 436.925 484.344 436.925 469.739C436.925 455.133 448.765 443.294 463.37 443.293Z" stroke="#E5D9C1" stroke-width="1.5"/>
<path opacity="0.5" d="M416.851 415.07C431.456 415.07 443.296 426.91 443.296 441.515C443.296 456.12 431.456 467.96 416.851 467.96C402.246 467.96 390.406 456.12 390.406 441.515C390.406 426.91 402.246 415.07 416.851 415.07Z" stroke="#E5D9C1" stroke-width="1.5"/>
<path opacity="0.5" d="M370.332 386.865C384.938 386.865 396.778 398.705 396.778 413.311C396.778 427.916 384.938 439.756 370.332 439.756C355.727 439.756 343.887 427.916 343.887 413.311C343.887 398.705 355.727 386.866 370.332 386.865Z" stroke="#E5D9C1" stroke-width="1.5"/>
<path opacity="0.5" d="M317.702 401.264C332.307 401.264 344.147 413.104 344.147 427.71C344.147 442.315 332.307 454.155 317.702 454.155C303.096 454.155 291.256 442.315 291.256 427.71C291.256 413.104 303.096 401.264 317.702 401.264Z" stroke="#E5D9C1" stroke-width="1.5"/>
<path opacity="0.5" d="M346.855 278.875C361.461 278.875 373.3 290.715 373.301 305.32C373.301 319.926 361.461 331.766 346.855 331.766C332.25 331.766 320.41 319.926 320.41 305.32C320.41 290.715 332.25 278.875 346.855 278.875Z" stroke="#E5D9C1" stroke-width="1.5"/>
<path opacity="0.5" d="M474.842 496.339C489.447 496.339 501.287 508.179 501.287 522.785C501.287 537.39 489.447 549.23 474.842 549.23C460.236 549.23 448.396 537.39 448.396 522.785C448.396 508.179 460.236 496.339 474.842 496.339Z" stroke="#E5D9C1" stroke-width="1.5"/>
<path opacity="0.5" d="M516.001 428.46C530.606 428.46 542.446 440.3 542.446 454.905C542.446 469.51 530.606 481.35 516.001 481.35C501.395 481.35 489.555 469.51 489.555 454.905C489.555 440.3 501.395 428.46 516.001 428.46Z" stroke="#E5D9C1" stroke-width="1.5"/>
<path opacity="0.5" d="M346.855 279.547C361.461 279.547 373.3 291.387 373.301 305.993C373.301 320.598 361.461 332.438 346.855 332.438C332.25 332.438 320.41 320.598 320.41 305.993C320.41 291.387 332.25 279.548 346.855 279.547Z" stroke="#E5D9C1" stroke-width="1.5"/>
<path opacity="0.5" d="M401.266 278.084C415.871 278.084 427.711 289.924 427.711 304.529C427.711 319.135 415.871 330.974 401.266 330.974C386.661 330.974 374.821 319.135 374.821 304.529C374.821 289.924 386.661 278.084 401.266 278.084Z" stroke="#E5D9C1" stroke-width="1.5"/>
<path opacity="0.5" d="M508.861 293.333C523.466 293.333 535.306 305.173 535.306 319.778C535.306 334.384 523.466 346.224 508.861 346.224C494.255 346.224 482.415 334.384 482.415 319.778C482.415 305.173 494.255 293.333 508.861 293.333Z" stroke="#E5D9C1" stroke-width="1.5"/>
<path opacity="0.5" d="M454.964 286.015C469.57 286.015 481.41 297.855 481.41 312.46C481.41 327.066 469.57 338.906 454.964 338.906C440.359 338.906 428.519 327.066 428.519 312.46C428.519 297.855 440.359 286.015 454.964 286.015Z" stroke="#E5D9C1" stroke-width="1.5"/>
<path opacity="0.5" d="M540.565 337.4C555.171 337.4 567.011 349.239 567.011 363.845C567.011 378.45 555.171 390.29 540.565 390.29C525.96 390.29 514.12 378.45 514.12 363.845C514.12 349.24 525.96 337.4 540.565 337.4Z" stroke="#E5D9C1" stroke-width="1.5"/>
<path opacity="0.5" d="M551.207 258.721C565.812 258.721 577.652 270.561 577.652 285.166C577.652 299.771 565.812 311.611 551.207 311.611C536.601 311.611 524.761 299.771 524.761 285.166C524.761 270.561 536.601 258.721 551.207 258.721Z" stroke="#E5D9C1" stroke-width="1.5"/>
<path opacity="0.5" d="M638.944 194.777C653.549 194.777 665.389 206.617 665.389 221.222C665.389 235.828 653.549 247.667 638.944 247.667C624.338 247.667 612.499 235.828 612.499 221.222C612.499 206.617 624.339 194.777 638.944 194.777Z" stroke="#E5D9C1" stroke-width="1.5"/>
<path opacity="0.5" d="M594.857 226.66C609.463 226.66 621.303 238.5 621.303 253.105C621.303 267.711 609.463 279.55 594.857 279.55C580.252 279.55 568.412 267.71 568.412 253.105C568.412 238.5 580.252 226.66 594.857 226.66Z" stroke="#E5D9C1" stroke-width="1.5"/>
<path opacity="0.5" d="M692.286 204.844C706.892 204.844 718.732 216.684 718.732 231.289C718.732 245.895 706.892 257.735 692.286 257.735C677.681 257.735 665.841 245.895 665.841 231.289C665.841 216.684 677.681 204.844 692.286 204.844Z" stroke="#E5D9C1" stroke-width="1.5"/>
<path opacity="0.5" d="M645.748 140.525C660.353 140.525 672.193 152.364 672.193 166.97C672.193 181.575 660.353 193.415 645.748 193.415C631.142 193.415 619.302 181.575 619.302 166.97C619.302 152.365 631.142 140.525 645.748 140.525Z" stroke="#E5D9C1" stroke-width="1.5"/>
<path opacity="0.5" d="M650.297 326.324C664.902 326.324 676.742 338.164 676.742 352.769C676.742 367.374 664.902 379.214 650.297 379.214C635.691 379.214 623.851 367.374 623.851 352.769C623.851 338.164 635.691 326.324 650.297 326.324Z" stroke="#E5D9C1" stroke-width="1.5"/>
<path opacity="0.5" d="M596.143 331.446C610.748 331.446 622.588 343.286 622.588 357.891C622.588 372.497 610.748 384.337 596.143 384.337C581.538 384.337 569.698 372.497 569.698 357.891C569.698 343.286 581.538 331.446 596.143 331.446Z" stroke="#E5D9C1" stroke-width="1.5"/>
<path opacity="0.5" d="M691.179 362.043C705.784 362.043 717.624 373.883 717.624 388.489C717.624 403.094 705.784 414.934 691.179 414.934C676.573 414.934 664.733 403.094 664.733 388.489C664.733 373.883 676.573 362.044 691.179 362.043Z" stroke="#E5D9C1" stroke-width="1.5"/>
<path opacity="0.5" d="M683.683 283.009C698.288 283.009 710.128 294.849 710.128 309.454C710.128 324.06 698.288 335.899 683.683 335.899C669.077 335.899 657.237 324.059 657.237 309.454C657.237 294.849 669.077 283.009 683.683 283.009Z" stroke="#E5D9C1" stroke-width="1.5"/>
</g>
<defs>
<clipPath id="clip0_2064_206">
<rect width="719.482" height="550" fill="white"/>
</clipPath>
</defs>
</svg>
