<svg width="477" height="261" viewBox="0 0 477 261" fill="none" xmlns="http://www.w3.org/2000/svg">
<g filter="url(#filter0_d_2025_258)">
<path d="M82.6807 176.813L112.228 227.201L112.659 227.938L113.09 227.201L142.623 176.813L155.263 176.813L155.263 252.033L144.999 252.033L150.421 185.206L149.494 184.908L116.375 240.062L109.049 240.062L75.8096 184.907L74.8828 185.206L80.3057 252.033L70.042 252.033L70.042 176.813L82.6807 176.813Z" stroke="#F5EFE3" shape-rendering="crispEdges"/>
</g>
<path d="M271.804 176.813L320.464 244.52L321.513 245.979L321.368 244.188L315.946 176.813L326.09 176.813L326.09 252.033L313.769 252.033L265.001 183.689L263.952 182.218L264.096 184.019L269.52 252.033L259.361 252.033L259.361 176.813L271.804 176.813Z" stroke="#F5EFE3"/>
<mask id="path-3-inside-1_2025_258" fill="white">
<path d="M155.829 132.849C153.602 131.396 151.429 129.823 149.123 128.516C143.003 125.077 136.924 121.544 130.631 118.437C123.245 114.771 115.525 111.878 107.792 108.985C102.113 106.865 96.6332 104.225 91.087 101.732C85.4607 99.1986 80.1545 96.1188 75.0882 92.5724C69.0886 88.3727 63.7557 83.4931 58.9694 77.9602C55.1563 73.5338 51.7299 68.8408 48.7301 63.8679C46.5703 60.2815 45.1037 56.3751 44.9571 52.0954C44.8504 49.2023 45.997 47.6824 48.7168 46.6025C51.1299 45.6559 53.5164 46.0959 55.9029 46.5225C61.6625 47.5624 67.0221 49.8156 72.395 52.0287C82.6743 56.2418 93.0068 60.3081 103.273 64.5345C110.846 67.6543 117.898 71.7073 124.365 76.7869C130.951 81.9599 136.924 87.7728 142.35 94.1056C146.016 98.3853 149.189 103.078 152.629 107.545C158.455 115.104 163.748 123.117 171.081 129.41C175.147 132.889 179.587 135.783 184.573 137.649C191.386 140.209 198.319 142.489 205.225 144.782C209.545 146.222 214.051 146.542 218.571 146.675C220.731 146.742 222.904 146.795 225.064 146.715C228.077 146.595 230.33 144.489 231.143 141.609C231.57 140.089 230.917 138.996 230.21 137.996C225.597 131.356 220.731 124.943 214.211 119.944C208.825 115.811 203.052 112.331 197.172 108.985C191.533 105.785 185.893 102.532 180.56 98.8653C177.387 96.6788 174.494 93.879 172.028 90.9059C168.175 86.2529 164.468 81.3999 161.282 76.2803C158.082 71.134 155.616 65.5344 152.802 60.1348C151.003 56.6817 149.149 53.2553 147.349 49.8022C146.03 47.2558 146.27 46.2958 149.043 45.6559C151.709 45.0293 154.522 44.616 157.255 44.696C163.028 44.8693 168.681 46.0825 173.801 48.789C177.761 50.8822 181.587 53.362 185.16 56.0551C190.28 59.9215 195.093 64.1745 199.506 68.8542C206.398 76.1603 212.171 84.1864 216.104 93.519C219.104 100.625 222.451 107.585 225.677 114.584C227.597 118.757 229.503 122.943 231.597 127.023C234.143 131.983 238.169 135.263 243.116 137.889C248.555 140.769 254.182 142.929 260.114 144.275C270.714 146.675 281.406 148.302 292.325 147.235C294.125 147.062 295.925 146.755 297.685 146.328C299.618 145.862 300.205 144.862 299.378 143.075C297.912 139.942 296.205 136.902 294.579 133.849C294.219 133.169 293.752 132.529 293.285 131.903C291.979 130.196 290.712 128.73 288.179 128.543C282.686 128.143 277.62 126.103 272.527 124.063C267.527 122.05 263.048 119.397 259.301 115.557C257.741 113.957 256.301 112.171 255.048 110.318C250.182 103.118 246.955 95.2389 245.729 86.6128C245.116 82.3065 245.116 78.0002 246.329 73.7738C246.755 72.2939 247.235 70.8274 247.835 69.4275C249.142 66.321 251.435 63.9479 254.048 61.9747C260.034 57.4417 266.767 54.6152 274.26 53.7353C281.66 52.8687 288.419 55.0285 294.512 58.8816C299.085 61.7747 302.485 66.0677 305.244 70.774C309.404 77.8268 311.911 85.3863 312.124 93.6257C312.244 98.5186 311.497 103.265 309.924 107.945C308.431 112.371 306.258 116.304 303.165 119.81C301.458 121.744 300.058 123.943 298.352 126.237C299.445 129.756 301.511 133.049 303.805 136.209C304.818 137.609 306.111 138.822 307.098 140.236C308.791 142.689 311.244 143.462 313.937 143.075C317.537 142.555 321.11 141.795 324.643 140.902C329.429 139.689 334.136 138.196 338.909 136.929C340.735 136.449 341.575 135.329 342.175 133.623C344.002 128.436 343.802 123.17 343.002 117.891C342.655 115.611 341.322 113.678 339.762 112.011C335.736 107.718 332.642 102.772 329.683 97.7454C328.656 95.9988 328.029 93.9056 327.683 91.8791C326.536 85.2663 326.51 78.6001 327.523 71.9606C328.949 62.5746 332.056 53.6553 335.389 44.8293C338.949 35.4033 343.762 26.564 348.628 17.7779C351.521 12.565 354.334 7.29873 357.174 2.05912C357.334 1.75247 357.387 1.33917 357.641 1.13918C358.201 0.672552 358.894 -0.0740596 359.414 0.00593445C359.907 0.0859285 360.547 1.03252 360.654 1.67248C361.214 5.09889 361.64 8.53863 362.08 11.9917C362.694 16.8047 363.68 21.631 363.773 26.4573C363.88 32.3235 363.427 38.2298 362.867 44.0827C362.174 51.3355 360.814 58.5216 360.347 65.7744C360.054 70.2274 360.84 74.7604 361.227 79.2401C361.467 81.9999 361.827 84.7596 362.214 87.5061C362.854 92.0258 361.627 96.1855 359.454 100.012C357.094 104.158 354.521 108.198 351.881 112.184C350.081 114.904 348.521 117.624 348.281 120.97C348.095 123.663 347.641 126.33 347.401 129.01C347.321 129.943 347.401 130.943 347.641 131.849C348.095 133.556 348.855 133.969 350.548 133.476C360.774 130.476 371.053 127.636 380.746 123.05C385.465 120.824 389.758 117.891 394.251 115.291C401.611 111.051 409.09 107.025 416.49 102.865C420.876 100.398 425.276 97.932 429.569 95.2922C435.395 91.7058 441.208 88.0661 446.887 84.253C451.274 81.3066 455.447 78.0535 459.713 74.947C461.113 73.9338 462.526 72.8939 464.006 71.9873C465.286 71.2006 466.539 71.374 467.592 72.3872C471.139 75.8003 473.739 79.9067 475.845 84.293C476.658 85.9729 475.565 87.5594 474.432 88.7327C473.432 89.7726 472.085 90.4659 470.912 91.3458C464.126 96.4654 456.367 99.7585 448.66 103.172C444.701 104.931 440.621 106.438 436.661 108.198C430.395 110.984 424.196 113.931 417.956 116.744C411.397 119.704 404.864 122.743 398.211 125.45C390.505 128.583 382.612 131.25 374.919 134.409C367.92 137.289 360.747 139.609 353.521 141.809C351.441 142.449 349.348 142.995 347.255 143.595C347.001 143.662 346.748 143.729 346.508 143.822C343.068 145.075 342.428 146.155 343.322 149.702C343.722 151.288 344.255 152.901 345.068 154.301C349.148 161.341 353.948 167.82 360.267 172.9C362.787 172.673 365.293 172.18 367.76 172.3C373.599 172.566 379.119 174.286 384.452 176.633C391.945 179.926 398.424 184.712 404.077 190.552C410.45 197.151 414.543 205.017 415.663 214.19C416.303 219.47 415.663 224.723 413.85 229.776C412.41 233.789 410.57 237.615 408.343 241.241C405.89 245.228 402.331 248.001 398.371 250.347C393.878 253.014 388.905 253.507 383.839 253.627C377.426 253.774 371.68 251.747 366.16 248.547C360.667 245.361 356.721 240.828 353.108 235.748C349.428 230.562 346.775 224.976 345.175 218.87C343.575 212.737 342.428 206.457 343.015 200.138C343.602 193.765 344.935 187.459 348.895 182.112C350.468 179.979 350.428 177.873 349.161 175.566C345.935 169.7 342.842 163.767 339.602 157.901C337.789 154.621 334.856 152.408 331.789 150.368C329.949 149.142 328.096 149.408 326.043 149.901C318.79 151.648 311.524 153.315 304.218 154.808C296.912 156.301 289.539 155.874 282.193 154.954C275.567 154.128 268.94 153.208 262.248 153.688C259.328 153.901 256.341 154.221 253.542 155.048C248.849 156.434 244.649 158.887 241.236 162.461C238.103 165.727 235.25 169.233 233.45 173.46C233.05 174.42 232.703 175.393 232.383 176.38C231.97 177.646 232.29 178.633 233.21 179.699C238.916 186.259 242.729 193.752 243.902 202.444C244.542 207.137 244.022 211.79 243.116 216.403C241.196 226.122 237.023 234.829 231.037 242.655C226.397 248.707 220.917 253.854 213.811 256.987C209.838 258.733 205.798 260.44 201.425 260.627C193.239 260.987 185.987 258.333 180.107 252.681C169.615 242.615 167.548 230.269 171.588 216.817C173.868 209.217 178.107 202.538 183.16 196.338C187.2 191.378 191.56 186.832 196.573 182.912C201.305 179.219 206.572 176.62 212.638 176.113C215.571 175.873 218.531 175.98 221.477 176.033C223.371 176.073 224.53 175.206 225.424 173.62C227.024 170.78 228.09 167.873 227.904 164.514C227.73 161.287 226.064 159.274 223.317 157.888C218.531 155.474 213.345 154.434 208.132 153.488C196.439 151.368 184.773 149.168 173.068 147.115C163.735 145.475 154.296 144.835 144.843 145.155C135.577 145.475 126.338 146.142 117.085 146.755C106.886 147.435 96.6999 148.408 86.5007 148.902C78.5413 149.288 70.5685 149.315 62.5958 149.235C53.2631 149.142 44.1305 147.555 35.3045 144.462C28.345 142.022 22.3054 137.982 16.7058 133.236C14.1194 131.05 11.4396 128.983 8.95974 126.69C6.23994 124.157 3.61347 121.49 1.13365 118.717C-0.826201 116.531 -0.146252 114.224 2.41356 112.691C8.25313 109.185 14.5593 107.185 21.2922 106.505C28.5316 105.771 35.7844 105.025 43.0372 104.385C49.6634 103.798 56.1829 104.798 62.6491 106.065C73.2083 108.131 83.5675 111.024 93.7668 114.451C106.339 118.664 118.885 122.97 131.417 127.29C138.91 129.876 146.603 131.65 154.309 133.343C154.749 133.436 155.256 133.303 155.722 133.276C155.776 133.143 155.816 133.009 155.869 132.876L155.829 132.849Z"/>
</mask>
<path d="M155.829 132.849C153.602 131.396 151.429 129.823 149.123 128.516C143.003 125.077 136.924 121.544 130.631 118.437C123.245 114.771 115.525 111.878 107.792 108.985C102.113 106.865 96.6332 104.225 91.087 101.732C85.4607 99.1986 80.1545 96.1188 75.0882 92.5724C69.0886 88.3727 63.7557 83.4931 58.9694 77.9602C55.1563 73.5338 51.7299 68.8408 48.7301 63.8679C46.5703 60.2815 45.1037 56.3751 44.9571 52.0954C44.8504 49.2023 45.997 47.6824 48.7168 46.6025C51.1299 45.6559 53.5164 46.0959 55.9029 46.5225C61.6625 47.5624 67.0221 49.8156 72.395 52.0287C82.6743 56.2418 93.0068 60.3081 103.273 64.5345C110.846 67.6543 117.898 71.7073 124.365 76.7869C130.951 81.9599 136.924 87.7728 142.35 94.1056C146.016 98.3853 149.189 103.078 152.629 107.545C158.455 115.104 163.748 123.117 171.081 129.41C175.147 132.889 179.587 135.783 184.573 137.649C191.386 140.209 198.319 142.489 205.225 144.782C209.545 146.222 214.051 146.542 218.571 146.675C220.731 146.742 222.904 146.795 225.064 146.715C228.077 146.595 230.33 144.489 231.143 141.609C231.57 140.089 230.917 138.996 230.21 137.996C225.597 131.356 220.731 124.943 214.211 119.944C208.825 115.811 203.052 112.331 197.172 108.985C191.533 105.785 185.893 102.532 180.56 98.8653C177.387 96.6788 174.494 93.879 172.028 90.9059C168.175 86.2529 164.468 81.3999 161.282 76.2803C158.082 71.134 155.616 65.5344 152.802 60.1348C151.003 56.6817 149.149 53.2553 147.349 49.8022C146.03 47.2558 146.27 46.2958 149.043 45.6559C151.709 45.0293 154.522 44.616 157.255 44.696C163.028 44.8693 168.681 46.0825 173.801 48.789C177.761 50.8822 181.587 53.362 185.16 56.0551C190.28 59.9215 195.093 64.1745 199.506 68.8542C206.398 76.1603 212.171 84.1864 216.104 93.519C219.104 100.625 222.451 107.585 225.677 114.584C227.597 118.757 229.503 122.943 231.597 127.023C234.143 131.983 238.169 135.263 243.116 137.889C248.555 140.769 254.182 142.929 260.114 144.275C270.714 146.675 281.406 148.302 292.325 147.235C294.125 147.062 295.925 146.755 297.685 146.328C299.618 145.862 300.205 144.862 299.378 143.075C297.912 139.942 296.205 136.902 294.579 133.849C294.219 133.169 293.752 132.529 293.285 131.903C291.979 130.196 290.712 128.73 288.179 128.543C282.686 128.143 277.62 126.103 272.527 124.063C267.527 122.05 263.048 119.397 259.301 115.557C257.741 113.957 256.301 112.171 255.048 110.318C250.182 103.118 246.955 95.2389 245.729 86.6128C245.116 82.3065 245.116 78.0002 246.329 73.7738C246.755 72.2939 247.235 70.8274 247.835 69.4275C249.142 66.321 251.435 63.9479 254.048 61.9747C260.034 57.4417 266.767 54.6152 274.26 53.7353C281.66 52.8687 288.419 55.0285 294.512 58.8816C299.085 61.7747 302.485 66.0677 305.244 70.774C309.404 77.8268 311.911 85.3863 312.124 93.6257C312.244 98.5186 311.497 103.265 309.924 107.945C308.431 112.371 306.258 116.304 303.165 119.81C301.458 121.744 300.058 123.943 298.352 126.237C299.445 129.756 301.511 133.049 303.805 136.209C304.818 137.609 306.111 138.822 307.098 140.236C308.791 142.689 311.244 143.462 313.937 143.075C317.537 142.555 321.11 141.795 324.643 140.902C329.429 139.689 334.136 138.196 338.909 136.929C340.735 136.449 341.575 135.329 342.175 133.623C344.002 128.436 343.802 123.17 343.002 117.891C342.655 115.611 341.322 113.678 339.762 112.011C335.736 107.718 332.642 102.772 329.683 97.7454C328.656 95.9988 328.029 93.9056 327.683 91.8791C326.536 85.2663 326.51 78.6001 327.523 71.9606C328.949 62.5746 332.056 53.6553 335.389 44.8293C338.949 35.4033 343.762 26.564 348.628 17.7779C351.521 12.565 354.334 7.29873 357.174 2.05912C357.334 1.75247 357.387 1.33917 357.641 1.13918C358.201 0.672552 358.894 -0.0740596 359.414 0.00593445C359.907 0.0859285 360.547 1.03252 360.654 1.67248C361.214 5.09889 361.64 8.53863 362.08 11.9917C362.694 16.8047 363.68 21.631 363.773 26.4573C363.88 32.3235 363.427 38.2298 362.867 44.0827C362.174 51.3355 360.814 58.5216 360.347 65.7744C360.054 70.2274 360.84 74.7604 361.227 79.2401C361.467 81.9999 361.827 84.7596 362.214 87.5061C362.854 92.0258 361.627 96.1855 359.454 100.012C357.094 104.158 354.521 108.198 351.881 112.184C350.081 114.904 348.521 117.624 348.281 120.97C348.095 123.663 347.641 126.33 347.401 129.01C347.321 129.943 347.401 130.943 347.641 131.849C348.095 133.556 348.855 133.969 350.548 133.476C360.774 130.476 371.053 127.636 380.746 123.05C385.465 120.824 389.758 117.891 394.251 115.291C401.611 111.051 409.09 107.025 416.49 102.865C420.876 100.398 425.276 97.932 429.569 95.2922C435.395 91.7058 441.208 88.0661 446.887 84.253C451.274 81.3066 455.447 78.0535 459.713 74.947C461.113 73.9338 462.526 72.8939 464.006 71.9873C465.286 71.2006 466.539 71.374 467.592 72.3872C471.139 75.8003 473.739 79.9067 475.845 84.293C476.658 85.9729 475.565 87.5594 474.432 88.7327C473.432 89.7726 472.085 90.4659 470.912 91.3458C464.126 96.4654 456.367 99.7585 448.66 103.172C444.701 104.931 440.621 106.438 436.661 108.198C430.395 110.984 424.196 113.931 417.956 116.744C411.397 119.704 404.864 122.743 398.211 125.45C390.505 128.583 382.612 131.25 374.919 134.409C367.92 137.289 360.747 139.609 353.521 141.809C351.441 142.449 349.348 142.995 347.255 143.595C347.001 143.662 346.748 143.729 346.508 143.822C343.068 145.075 342.428 146.155 343.322 149.702C343.722 151.288 344.255 152.901 345.068 154.301C349.148 161.341 353.948 167.82 360.267 172.9C362.787 172.673 365.293 172.18 367.76 172.3C373.599 172.566 379.119 174.286 384.452 176.633C391.945 179.926 398.424 184.712 404.077 190.552C410.45 197.151 414.543 205.017 415.663 214.19C416.303 219.47 415.663 224.723 413.85 229.776C412.41 233.789 410.57 237.615 408.343 241.241C405.89 245.228 402.331 248.001 398.371 250.347C393.878 253.014 388.905 253.507 383.839 253.627C377.426 253.774 371.68 251.747 366.16 248.547C360.667 245.361 356.721 240.828 353.108 235.748C349.428 230.562 346.775 224.976 345.175 218.87C343.575 212.737 342.428 206.457 343.015 200.138C343.602 193.765 344.935 187.459 348.895 182.112C350.468 179.979 350.428 177.873 349.161 175.566C345.935 169.7 342.842 163.767 339.602 157.901C337.789 154.621 334.856 152.408 331.789 150.368C329.949 149.142 328.096 149.408 326.043 149.901C318.79 151.648 311.524 153.315 304.218 154.808C296.912 156.301 289.539 155.874 282.193 154.954C275.567 154.128 268.94 153.208 262.248 153.688C259.328 153.901 256.341 154.221 253.542 155.048C248.849 156.434 244.649 158.887 241.236 162.461C238.103 165.727 235.25 169.233 233.45 173.46C233.05 174.42 232.703 175.393 232.383 176.38C231.97 177.646 232.29 178.633 233.21 179.699C238.916 186.259 242.729 193.752 243.902 202.444C244.542 207.137 244.022 211.79 243.116 216.403C241.196 226.122 237.023 234.829 231.037 242.655C226.397 248.707 220.917 253.854 213.811 256.987C209.838 258.733 205.798 260.44 201.425 260.627C193.239 260.987 185.987 258.333 180.107 252.681C169.615 242.615 167.548 230.269 171.588 216.817C173.868 209.217 178.107 202.538 183.16 196.338C187.2 191.378 191.56 186.832 196.573 182.912C201.305 179.219 206.572 176.62 212.638 176.113C215.571 175.873 218.531 175.98 221.477 176.033C223.371 176.073 224.53 175.206 225.424 173.62C227.024 170.78 228.09 167.873 227.904 164.514C227.73 161.287 226.064 159.274 223.317 157.888C218.531 155.474 213.345 154.434 208.132 153.488C196.439 151.368 184.773 149.168 173.068 147.115C163.735 145.475 154.296 144.835 144.843 145.155C135.577 145.475 126.338 146.142 117.085 146.755C106.886 147.435 96.6999 148.408 86.5007 148.902C78.5413 149.288 70.5685 149.315 62.5958 149.235C53.2631 149.142 44.1305 147.555 35.3045 144.462C28.345 142.022 22.3054 137.982 16.7058 133.236C14.1194 131.05 11.4396 128.983 8.95974 126.69C6.23994 124.157 3.61347 121.49 1.13365 118.717C-0.826201 116.531 -0.146252 114.224 2.41356 112.691C8.25313 109.185 14.5593 107.185 21.2922 106.505C28.5316 105.771 35.7844 105.025 43.0372 104.385C49.6634 103.798 56.1829 104.798 62.6491 106.065C73.2083 108.131 83.5675 111.024 93.7668 114.451C106.339 118.664 118.885 122.97 131.417 127.29C138.91 129.876 146.603 131.65 154.309 133.343C154.749 133.436 155.256 133.303 155.722 133.276C155.776 133.143 155.816 133.009 155.869 132.876L155.829 132.849Z" stroke="#F5EFE3" stroke-width="2" mask="url(#path-3-inside-1_2025_258)"/>
<defs>
<filter id="filter0_d_2025_258" x="65.542" y="176.313" width="94.2202" height="84.2209" filterUnits="userSpaceOnUse" color-interpolation-filters="sRGB">
<feFlood flood-opacity="0" result="BackgroundImageFix"/>
<feColorMatrix in="SourceAlpha" type="matrix" values="0 0 0 0 0 0 0 0 0 0 0 0 0 0 0 0 0 0 127 0" result="hardAlpha"/>
<feOffset dy="4"/>
<feGaussianBlur stdDeviation="2"/>
<feComposite in2="hardAlpha" operator="out"/>
<feColorMatrix type="matrix" values="0 0 0 0 0 0 0 0 0 0 0 0 0 0 0 0 0 0 0.25 0"/>
<feBlend mode="normal" in2="BackgroundImageFix" result="effect1_dropShadow_2025_258"/>
<feBlend mode="normal" in="SourceGraphic" in2="effect1_dropShadow_2025_258" result="shape"/>
</filter>
</defs>
</svg>
