<svg width="94" height="85" viewBox="0 0 94 85" fill="none" xmlns="http://www.w3.org/2000/svg">
<path d="M63.6862 3.11575C65.3851 5.23665 65.1075 8.06823 65.1408 10.5667L74.7682 3.0047C80.1426 -0.171105 90.2253 -1.33705 93.1679 5.30328C96.4548 12.7431 87.527 14.6975 86.3943 9.80049C85.8613 7.49081 88.9927 4.5593 85.5948 2.83814C75.068 4.49267 74.6794 15.3082 72.9027 23.8918H80.6756V27.223C78.5658 27.6783 73.3024 26.5012 71.9366 27.3785C70.7818 28.1225 66.3179 49.2982 64.5523 53.8621C60.4437 64.511 46.9521 92.2716 31.9059 83.2105C26.2649 79.8126 27.4309 70.6072 34.4154 72.928C38.7017 74.3605 32.6054 81.1674 38.1576 82.5998C43.7097 84.0323 48.007 74.0718 49.606 69.9965C51.6492 64.7886 60.6658 29.4328 58.4672 27.2119C54.5474 27.9559 45.0644 25.3686 43.1323 29.0996C41.6776 31.8868 40.445 41.7696 39.0237 46.0891C35.004 58.3482 23.6332 87.4635 7.35444 84.5097C-5.90401 82.1112 1.68018 67.3426 7.5099 74.3494C9.24216 76.437 6.84364 78.7466 7.46548 80.9009C8.49817 84.5431 14.6166 81.445 16.3155 79.6905C22.1786 73.6165 30.64 37.8054 30.751 28.8776C30.7955 24.7135 24.0219 29.6993 24.0552 25.5574C25.7652 22.6148 29.996 24.669 31.6394 23.6919C32.1724 23.381 35.115 14.4643 36.4364 12.3878C40.9336 5.3477 56.9237 -5.32347 63.6862 3.09354V3.11575ZM45.1421 23.9029H60.688C61.321 23.9029 62.2537 13.5093 65.1075 12.2323L58.5893 11.555C57.1569 9.3008 61.854 2.87145 56.8682 2.80483C48.0625 2.69379 45.1976 17.1626 45.1421 23.9029Z" fill="white"/>
</svg>
